<svg width="21" height="17" viewBox="0 0 21 17" fill="none" xmlns="http://www.w3.org/2000/svg">
<path d="M10.2216 4.41025L3.50028 10.1731V16.3928C3.50028 16.5538 3.56173 16.7083 3.67112 16.8222C3.78051 16.936 3.92887 17 4.08356 17L8.16877 16.989C8.32296 16.9882 8.47058 16.9239 8.57933 16.8101C8.68809 16.6963 8.74914 16.5423 8.74914 16.3818V12.7495C8.74914 12.5885 8.8106 12.434 8.91998 12.3202C9.02937 12.2063 9.17773 12.1423 9.33243 12.1423H11.6656C11.8203 12.1423 11.9686 12.2063 12.078 12.3202C12.1874 12.434 12.2489 12.5885 12.2489 12.7495V16.3791C12.2486 16.459 12.2635 16.5382 12.2927 16.6121C12.322 16.686 12.3649 16.7531 12.4191 16.8097C12.4733 16.8663 12.5376 16.9112 12.6085 16.9418C12.6794 16.9725 12.7554 16.9882 12.8322 16.9882L16.9159 17C17.0706 17 17.219 16.936 17.3284 16.8222C17.4377 16.7083 17.4992 16.5538 17.4992 16.3928V10.1689L10.7794 4.41025C10.7004 4.34396 10.6019 4.30781 10.5005 4.30781C10.399 4.30781 10.3006 4.34396 10.2216 4.41025V4.41025ZM20.8385 8.32713L17.7908 5.71195V0.455408C17.7908 0.334626 17.7448 0.218792 17.6627 0.133386C17.5807 0.0479804 17.4694 0 17.3534 0H15.3119C15.1958 0 15.0846 0.0479804 15.0025 0.133386C14.9205 0.218792 14.8744 0.334626 14.8744 0.455408V3.21101L11.6105 0.41556C11.2973 0.147241 10.9043 0.000536374 10.4986 0.000536374C10.093 0.000536374 9.69997 0.147241 9.38675 0.41556L0.158763 8.32713C0.114465 8.36525 0.0778157 8.41208 0.0509086 8.46494C0.0240015 8.51781 0.00736429 8.57568 0.00194751 8.63524C-0.00346927 8.6948 0.00244057 8.75489 0.0193394 8.81207C0.0362382 8.86925 0.0637947 8.92241 0.100435 8.9685L1.03005 10.145C1.06659 10.1912 1.11153 10.2295 1.16231 10.2577C1.21309 10.2858 1.2687 10.3033 1.32596 10.309C1.38322 10.3148 1.441 10.3087 1.49601 10.2912C1.55102 10.2736 1.60216 10.245 1.64651 10.2068L10.2216 2.85427C10.3006 2.78798 10.399 2.75183 10.5005 2.75183C10.6019 2.75183 10.7004 2.78798 10.7794 2.85427L19.3548 10.2068C19.3991 10.245 19.4501 10.2737 19.5051 10.2913C19.56 10.3088 19.6177 10.315 19.6749 10.3094C19.7321 10.3037 19.7877 10.2864 19.8385 10.2584C19.8893 10.2304 19.9343 10.1922 19.9709 10.1461L20.9005 8.96964C20.9371 8.92328 20.9645 8.86985 20.9812 8.81242C20.9979 8.75498 21.0036 8.69468 20.9978 8.63498C20.9921 8.57527 20.975 8.51734 20.9477 8.46451C20.9203 8.41168 20.8832 8.36499 20.8385 8.32713V8.32713Z" fill="#183B56"/>
</svg>
