<svg width="21" height="17" viewBox="0 0 21 17" fill="none" xmlns="http://www.w3.org/2000/svg">
<path d="M20.125 0H3.20833C2.72508 0 2.33333 0.47569 2.33333 1.0625V1.41667H0.875C0.391745 1.41667 0 1.89236 0 2.47917V14.5208C0 15.89 0.914083 17 2.04167 17H19.25C20.2165 17 21 16.0486 21 14.875V1.0625C21 0.47569 20.6083 0 20.125 0ZM2.04167 14.875C1.96431 14.875 1.89013 14.8377 1.83543 14.7713C1.78073 14.7048 1.75 14.6148 1.75 14.5208V3.54167H2.33333V14.5208C2.33333 14.6148 2.3026 14.7048 2.24791 14.7713C2.19321 14.8377 2.11902 14.875 2.04167 14.875ZM10.6458 14.1667H5.10417C4.86256 14.1667 4.66667 13.9288 4.66667 13.6354V13.2812C4.66667 12.9879 4.86256 12.75 5.10417 12.75H10.6458C10.8874 12.75 11.0833 12.9879 11.0833 13.2812V13.6354C11.0833 13.9288 10.8874 14.1667 10.6458 14.1667ZM18.2292 14.1667H12.6875C12.4459 14.1667 12.25 13.9288 12.25 13.6354V13.2812C12.25 12.9879 12.4459 12.75 12.6875 12.75H18.2292C18.4708 12.75 18.6667 12.9879 18.6667 13.2812V13.6354C18.6667 13.9288 18.4708 14.1667 18.2292 14.1667ZM10.6458 9.91667H5.10417C4.86256 9.91667 4.66667 9.6788 4.66667 9.38542V9.03125C4.66667 8.73787 4.86256 8.5 5.10417 8.5H10.6458C10.8874 8.5 11.0833 8.73787 11.0833 9.03125V9.38542C11.0833 9.6788 10.8874 9.91667 10.6458 9.91667ZM18.2292 9.91667H12.6875C12.4459 9.91667 12.25 9.6788 12.25 9.38542V9.03125C12.25 8.73787 12.4459 8.5 12.6875 8.5H18.2292C18.4708 8.5 18.6667 8.73787 18.6667 9.03125V9.38542C18.6667 9.6788 18.4708 9.91667 18.2292 9.91667ZM18.2292 5.66667H5.10417C4.86256 5.66667 4.66667 5.4288 4.66667 5.13542V3.36458C4.66667 3.0712 4.86256 2.83333 5.10417 2.83333H18.2292C18.4708 2.83333 18.6667 3.0712 18.6667 3.36458V5.13542C18.6667 5.4288 18.4708 5.66667 18.2292 5.66667Z" fill="#183B56"/>
</svg>
