<svg width="21" height="16" viewBox="0 0 21 16" fill="none" xmlns="http://www.w3.org/2000/svg">
<path d="M3.15 6.85714C4.30828 6.85714 5.25 5.83214 5.25 4.57143C5.25 3.31071 4.30828 2.28571 3.15 2.28571C1.99172 2.28571 1.05 3.31071 1.05 4.57143C1.05 5.83214 1.99172 6.85714 3.15 6.85714ZM17.85 6.85714C19.0083 6.85714 19.95 5.83214 19.95 4.57143C19.95 3.31071 19.0083 2.28571 17.85 2.28571C16.6917 2.28571 15.75 3.31071 15.75 4.57143C15.75 5.83214 16.6917 6.85714 17.85 6.85714ZM18.9 8H16.8C16.2225 8 15.7008 8.25357 15.3202 8.66429C16.6425 9.45357 17.5809 10.8786 17.7844 12.5714H19.95C20.5308 12.5714 21 12.0607 21 11.4286V10.2857C21 9.025 20.0583 8 18.9 8ZM10.5 8C12.5311 8 14.175 6.21071 14.175 4C14.175 1.78929 12.5311 0 10.5 0C8.46891 0 6.825 1.78929 6.825 4C6.825 6.21071 8.46891 8 10.5 8ZM13.02 9.14286H12.7477C12.0652 9.5 11.3072 9.71429 10.5 9.71429C9.69281 9.71429 8.93812 9.5 8.25234 9.14286H7.98C5.89312 9.14286 4.2 10.9857 4.2 13.2571V14.2857C4.2 15.2321 4.90547 16 5.775 16H15.225C16.0945 16 16.8 15.2321 16.8 14.2857V13.2571C16.8 10.9857 15.1069 9.14286 13.02 9.14286ZM5.67984 8.66429C5.29922 8.25357 4.7775 8 4.2 8H2.1C0.941719 8 0 9.025 0 10.2857V11.4286C0 12.0607 0.469219 12.5714 1.05 12.5714H3.21234C3.41906 10.8786 4.3575 9.45357 5.67984 8.66429Z" fill="#183B56"/>
</svg>
