<svg width="86" height="29" viewBox="0 0 86 29" fill="none" xmlns="http://www.w3.org/2000/svg">
<path d="M8.24561 5.81668H12.5621V0.0478516C10.7912 0.726534 9.24168 2.8757 8.24561 5.81668Z" fill="#159ED9"/>
<path d="M25.2343 5.81693C23.6848 3.66778 21.5819 1.91451 19.147 0.896484C20.0877 2.25385 20.9178 3.894 21.4712 5.87349H25.2343V5.81693Z" fill="#159ED9"/>
<path d="M22.6334 13.1114H27.78C27.6694 11.3581 27.2266 9.71798 26.5072 8.19092H22.0801C22.4121 9.71798 22.5781 11.3581 22.6334 13.1114Z" fill="#159ED9"/>
<path d="M14.7754 0.0478516V5.81668H19.0919C18.0958 2.8757 16.5463 0.726534 14.7754 0.0478516Z" fill="#159ED9"/>
<path d="M22.0801 20.3531H26.5072C27.1713 18.8261 27.614 17.1859 27.78 15.4326H22.6334C22.5781 17.1293 22.4121 18.8261 22.0801 20.3531Z" fill="#159ED9"/>
<path d="M14.7754 28.4378C16.4909 27.7591 18.0404 25.6099 19.0919 22.6689H14.7754V28.4378Z" fill="#159ED9"/>
<path d="M19.147 27.646C21.5819 26.5714 23.6848 24.8747 25.179 22.6689H21.4712C20.9178 24.5919 20.0877 26.2886 19.147 27.646Z" fill="#159ED9"/>
<path d="M2.10303 5.81636H5.81074C6.41949 3.89343 7.19423 2.19672 8.13501 0.839355C5.75544 1.91394 3.65253 3.6672 2.10303 5.81636Z" fill="#159ED9"/>
<path d="M20.3647 15.4326H14.7754V20.3531H19.7006C20.088 18.8261 20.3093 17.1293 20.3647 15.4326Z" fill="#159ED9"/>
<path d="M19.7563 8.19092H14.8311V13.1114H20.4203C20.3097 11.3581 20.0883 9.71798 19.7563 8.19092Z" fill="#159ED9"/>
<path d="M10.9572 8.19092H1.5495C0.664074 8.19092 0 8.92617 0 9.77454V26.8547C0 27.7596 0.71941 28.4383 1.5495 28.4383H10.9572C11.8426 28.4383 12.5067 27.7031 12.5067 26.8547V9.77454C12.5067 8.86961 11.8426 8.19092 10.9572 8.19092ZM7.30479 27.3071H5.25725C4.92522 27.3071 4.70384 27.0244 4.70384 26.7416C4.70384 26.4023 4.98052 26.176 5.25725 26.176H7.30479C7.63682 26.176 7.8582 26.4588 7.8582 26.7416C7.8582 27.0244 7.58147 27.3071 7.30479 27.3071ZM11.3999 24.1966C11.3999 24.649 11.0679 24.9883 10.6251 24.9883H1.93688C1.49416 24.9883 1.16213 24.649 1.16213 24.1966V10.1139C1.16213 9.66142 1.49416 9.32208 1.93688 9.32208H10.6251C11.0679 9.32208 11.3999 9.66142 11.3999 10.1139V24.1966Z" fill="#657684"/>
<path d="M2.82244 11.6409H9.68449C10.0166 11.6409 10.2379 11.3581 10.2379 11.0753C10.2379 10.736 9.96122 10.5098 9.68449 10.5098H2.82244C2.4904 10.5098 2.26904 10.7926 2.26904 11.0753C2.26904 11.4147 2.54574 11.6409 2.82244 11.6409Z" fill="#159ED9"/>
<path d="M2.82244 13.9598H6.25346C6.58553 13.9598 6.80686 13.677 6.80686 13.3942C6.80686 13.0548 6.53018 12.8286 6.25346 12.8286H2.82244C2.4904 12.8286 2.26904 13.1114 2.26904 13.3942C2.26904 13.7335 2.54574 13.9598 2.82244 13.9598Z" fill="#159ED9"/>
<path d="M9.68449 15.1475H2.82244C2.4904 15.1475 2.26904 15.4302 2.26904 15.713C2.26904 16.0524 2.54574 16.2786 2.82244 16.2786H9.68449C10.0166 16.2786 10.2379 15.9958 10.2379 15.713C10.2379 15.3737 10.0166 15.1475 9.68449 15.1475Z" fill="#159ED9"/>
<path d="M8.57773 17.4668H2.82244C2.4904 17.4668 2.26904 17.7496 2.26904 18.0324C2.26904 18.3717 2.54574 18.598 2.82244 18.598H8.52238C8.85441 18.598 9.07579 18.3152 9.07579 18.0324C9.13113 17.693 8.85441 17.4668 8.57773 17.4668Z" fill="#159ED9"/>
<path d="M6.25346 19.7275H2.82244C2.4904 19.7275 2.26904 20.0103 2.26904 20.2931C2.26904 20.6324 2.54574 20.8587 2.82244 20.8587H6.25346C6.58553 20.8587 6.80686 20.5759 6.80686 20.2931C6.86221 20.0103 6.58553 19.7275 6.25346 19.7275Z" fill="#159ED9"/>
<path d="M39.5441 12.228L42.0133 4.24584C42.0681 4.13262 42.0681 4.0194 42.123 3.84957C42.1781 3.73635 42.1781 3.56651 42.2326 3.45329C42.2876 3.62312 42.2876 3.73635 42.3426 3.84957C42.3971 3.96279 42.3971 4.13262 42.4521 4.24584L44.8665 12.228H47.0615L50.7924 0H48.8719C48.6524 0 48.4879 0.0566112 48.3234 0.169834C48.1589 0.283057 48.0489 0.396279 48.0489 0.566112L46.1835 7.47271C46.1285 7.6425 46.0735 7.86895 46.0735 8.03879C46.019 8.26524 45.964 8.49168 45.964 8.71813C45.909 8.49168 45.854 8.26524 45.7995 8.03879C45.7445 7.81235 45.6895 7.6425 45.6345 7.47271L43.4401 0.566112C43.3851 0.396279 43.2751 0.283057 43.1656 0.169834C43.0556 0.0566112 42.8361 0 42.6716 0H41.9584C41.7389 0 41.5743 0.0566112 41.4097 0.169834C41.2451 0.283057 41.1902 0.396279 41.1354 0.566112L38.9954 7.47271C38.9405 7.6425 38.8857 7.86895 38.8308 8.09539C38.7759 8.32184 38.721 8.54828 38.6662 8.77473C38.6113 8.54828 38.5565 8.32184 38.5565 8.09539C38.5016 7.86895 38.4467 7.6425 38.4467 7.47271L36.5263 0.566112C36.4714 0.396279 36.3617 0.283057 36.2519 0.169834C36.0873 0.0566112 35.9227 0 35.7032 0H33.6182L37.2944 12.228H39.5441Z" fill="#183B56"/>
<path d="M59.985 10.2466H54.9372V7.01979H58.8876V5.15163H54.9372V1.9814H59.985V0H52.4683V12.228H59.985V10.2466Z" fill="#183B56"/>
<path d="M69.8841 11.1524C70.2685 10.8128 70.5425 10.4165 70.7075 10.0202C70.927 9.56729 70.9815 9.1144 70.9815 8.60491C70.9815 7.18964 70.2135 6.28386 68.6221 5.88757C69.0066 5.77437 69.2806 5.60452 69.5551 5.43468C69.8295 5.26483 70.049 5.03839 70.2135 4.81194C70.378 4.58552 70.488 4.35907 70.5975 4.07601C70.6525 3.79295 70.7075 3.56651 70.7075 3.28346C70.7075 2.77395 70.6525 2.32106 70.488 1.92479C70.323 1.5285 70.049 1.18884 69.7196 0.905779C69.3356 0.622725 68.8966 0.396279 68.3481 0.226445C67.7991 0.0566112 67.0861 0 66.3177 0H62.0933V12.228H66.7021C67.4151 12.228 68.0186 12.1148 68.5676 11.945C69.0611 11.7185 69.5001 11.4921 69.8841 11.1524ZM66.2631 1.86817C66.5921 1.86817 66.9216 1.92479 67.1411 1.98139C67.4151 2.03801 67.5796 2.15123 67.7446 2.26445C67.9091 2.37768 68.0186 2.54751 68.1286 2.77395C68.1836 3.0004 68.2381 3.22684 68.2381 3.56651C68.2381 3.84957 68.1836 4.13262 68.0736 4.30246C67.9641 4.5289 67.8541 4.69874 67.6346 4.81194C67.4701 4.92519 67.2506 5.03839 66.9761 5.09503C66.7021 5.15163 66.4276 5.20823 66.0437 5.20823H64.4522V1.86817H66.2631ZM68.1836 9.68053C68.0186 9.85038 67.8541 9.96358 67.5796 10.0768C67.3056 10.19 66.9761 10.2466 66.5922 10.2466H64.5072V6.90659H66.5922C66.9761 6.90659 67.2506 6.96319 67.5251 7.01979C67.7991 7.07639 67.9641 7.18964 68.1286 7.35948C68.2931 7.47268 68.4031 7.64253 68.4576 7.86897C68.5126 8.03882 68.5676 8.26526 68.5676 8.54831C68.5676 8.77475 68.5126 9.0012 68.4576 9.22764C68.4576 9.34084 68.3481 9.56729 68.1836 9.68053Z" fill="#183B56"/>
<path d="M40.5701 22.1176C40.406 22.0047 40.2419 21.8919 40.0778 21.8354C40.3513 21.7225 40.5701 21.4403 40.8436 21.1581L44.6179 16.1348H42.4847C42.2659 16.1348 42.0471 16.1912 41.883 16.2477C41.7189 16.3041 41.5548 16.4734 41.4454 16.6427L38.4367 20.763C38.2726 21.0452 37.9444 21.1581 37.5614 21.1581H37.0691V16.1348H34.6074V28.3262H37.0691V23.0207H37.7802C38.0537 23.0207 38.2179 23.0771 38.382 23.1336C38.5461 23.19 38.6555 23.3029 38.7649 23.4722L41.8283 27.8747C41.883 27.9311 41.9377 28.044 41.9924 28.1004C42.0471 28.1569 42.1018 28.2133 42.2112 28.2698C42.2659 28.3262 42.3753 28.3262 42.4847 28.3827C42.5942 28.3827 42.7035 28.4391 42.8677 28.4391H45.0556L41.1719 22.7385C40.8436 22.3998 40.7342 22.2305 40.5701 22.1176Z" fill="#183B56"/>
<path d="M49.9969 16.2485L45.4019 28.44H47.3165C47.5354 28.44 47.6994 28.3835 47.8086 28.2707C47.9182 28.1578 48.0274 28.0449 48.0822 27.8756L48.9028 25.5615H53.6075L54.428 27.8756C54.4824 28.0449 54.592 28.1578 54.7012 28.2707C54.8108 28.3835 55.0297 28.44 55.1937 28.44H57.1084L52.5133 16.2485H49.9969ZM49.5044 23.8118L50.7626 20.0866C50.8174 19.9172 50.9266 19.635 50.9815 19.4093C51.0363 19.1271 51.1455 18.8449 51.2003 18.5626C51.2551 18.8449 51.3643 19.1271 51.4739 19.4093C51.5831 19.6915 51.638 19.9172 51.6928 20.0866L52.951 23.8118H49.5044Z" fill="#183B56"/>
<path d="M61.9651 21.1016L62.9496 21.4403C63.2564 21.5334 63.9066 21.7153 64.5654 22.1681C65.2867 22.664 65.7397 23.4999 65.7397 24.3753C65.7397 24.9397 65.63 25.4477 65.466 25.9557C65.2472 26.4636 64.9735 26.9152 64.6455 27.2538C64.2626 27.5925 63.825 27.8747 63.3325 28.1004C62.84 28.3262 62.2383 28.4391 61.5818 28.4391C61.2538 28.4391 60.8709 28.3827 60.4881 28.3262L60.4817 28.3243C60.101 28.2121 59.7201 28.0998 59.3939 27.9876C59.0111 27.8182 58.7374 27.6489 58.4094 27.4796C58.0809 27.2538 57.8072 27.0281 57.5889 26.8023L58.2997 25.617C58.3546 25.5041 58.4094 25.4477 58.5186 25.3912L58.52 25.3905C58.6291 25.3343 58.7379 25.2784 58.8471 25.2784C58.9562 25.2784 59.1203 25.3348 59.2843 25.4477C59.4487 25.5606 59.6127 25.7299 59.8316 25.8428C59.9954 26.0119 60.2685 26.1247 60.5413 26.2374L60.5425 26.2379C60.8161 26.3508 61.1446 26.4072 61.5274 26.4072C62.0743 26.4072 62.512 26.2943 62.84 26.0121C63.1685 25.7863 63.3325 25.3348 63.3325 24.8268C63.3325 24.5446 63.2777 24.2624 63.1136 24.0931C62.9496 23.9238 62.7856 23.7544 62.512 23.6416L62.5068 23.6394C62.2349 23.5272 61.963 23.4151 61.6366 23.3029C61.3086 23.2465 60.9801 23.1336 60.6521 23.0207C60.3236 22.9078 59.9956 22.7949 59.6676 22.6256C59.3391 22.4563 59.0654 22.287 58.7922 22.0047C58.5734 21.7225 58.3546 21.4403 58.1906 21.0452C58.0261 20.6501 57.9717 20.1986 57.9717 19.6342C57.9717 19.1826 58.0809 18.7875 58.2449 18.336C58.4094 17.9409 58.6826 17.5458 59.0111 17.2072C59.3391 16.8685 59.7768 16.6427 60.2693 16.417C60.7613 16.2477 61.3086 16.1348 61.9651 16.1348C62.676 16.1348 63.3325 16.2477 63.9342 16.4734C64.5358 16.6992 65.0283 17.0378 65.466 17.4329L64.8643 18.6182C64.8095 18.7311 64.7003 18.844 64.6455 18.9004L64.6444 18.901C64.5351 18.9573 64.4263 19.0133 64.317 19.0133C64.2078 19.0133 64.0982 19.0133 63.9342 18.9004C63.7702 18.7875 63.6061 18.7311 63.4421 18.6182C63.2233 18.5053 63.0045 18.4489 62.7856 18.336C62.5668 18.2796 62.2931 18.2231 61.9651 18.2231C61.4178 18.2231 60.9801 18.336 60.7069 18.6182C60.4333 18.9004 60.2693 19.2391 60.2693 19.6342C60.2693 19.9164 60.3236 20.1421 60.4881 20.3115C60.6521 20.4808 60.8161 20.6501 61.0898 20.763L61.0982 20.7665C61.3691 20.8782 61.64 20.9899 61.9651 21.1016Z" fill="#183B56"/>
<path d="M81.4597 16.2485H78.9434L74.2935 28.44H76.2082C76.427 28.44 76.591 28.3835 76.7002 28.2707C76.8098 28.1578 76.919 28.0449 76.9738 27.8756L77.7944 25.5615H82.4991L83.3196 27.8756C83.3744 28.0449 83.4836 28.1578 83.5933 28.2707C83.7024 28.3835 83.9213 28.44 84.0853 28.44H86L81.4597 16.2485ZM78.4509 23.8118L79.709 20.0866C79.7639 19.9172 79.8731 19.635 79.9279 19.4093C79.9827 19.1271 80.0919 18.8449 80.1467 18.5626C80.2015 18.8449 80.3107 19.1271 80.4204 19.4093C80.5296 19.6915 80.5844 19.9172 80.6392 20.0866L81.8974 23.8118H78.4509Z" fill="#183B56"/>
<path d="M70.8074 21.1016L71.7919 21.4403C72.0987 21.5334 72.7489 21.7153 73.4077 22.1681C74.129 22.664 74.5819 23.4999 74.5819 24.3753C74.5819 24.9397 74.4723 25.4477 74.3083 25.9557C74.0895 26.4636 73.8158 26.9152 73.4878 27.2538C73.1049 27.5925 72.6673 27.8747 72.1748 28.1004C71.6823 28.3262 71.0806 28.4391 70.4241 28.4391C70.0961 28.4391 69.7132 28.3827 69.3304 28.3262L69.324 28.3243C68.9433 28.2121 68.5624 28.0998 68.2362 27.9876C67.8534 27.8182 67.5797 27.6489 67.2517 27.4796C66.9232 27.2538 66.6495 27.0281 66.4312 26.8023L67.142 25.617C67.1969 25.5041 67.2517 25.4477 67.3609 25.3912L67.3622 25.3905C67.4714 25.3343 67.5802 25.2784 67.6893 25.2784C67.7985 25.2784 67.9625 25.3348 68.1266 25.4477C68.291 25.5606 68.455 25.7299 68.6739 25.8428C68.8376 26.0119 69.1108 26.1247 69.3836 26.2374L69.3847 26.2379C69.6584 26.3508 69.9869 26.4072 70.3697 26.4072C70.9166 26.4072 71.3543 26.2943 71.6823 26.0121C72.0108 25.7863 72.1748 25.3348 72.1748 24.8268C72.1748 24.5446 72.1199 24.2624 71.9559 24.0931C71.7919 23.9238 71.6279 23.7544 71.3542 23.6416L71.3491 23.6394C71.0772 23.5272 70.8053 23.4151 70.4789 23.3029C70.1509 23.2465 69.8224 23.1336 69.4944 23.0207C69.1659 22.9078 68.8379 22.7949 68.5099 22.6256C68.1814 22.4563 67.9077 22.287 67.6345 22.0047C67.4157 21.7225 67.1969 21.4403 67.0328 21.0452C66.8684 20.6501 66.814 20.1986 66.814 19.6342C66.814 19.1826 66.9232 18.7875 67.0872 18.336C67.2517 17.9409 67.5249 17.5458 67.8534 17.2072C68.1814 16.8685 68.619 16.6427 69.1115 16.417C69.6036 16.2477 70.1509 16.1348 70.8074 16.1348C71.5183 16.1348 72.1748 16.2477 72.7764 16.4734C73.3781 16.6992 73.8706 17.0378 74.3083 17.4329L73.7066 18.6182C73.6518 18.7311 73.5426 18.844 73.4878 18.9004L73.4867 18.901C73.3774 18.9573 73.2686 19.0133 73.1593 19.0133C73.0501 19.0133 72.9405 19.0133 72.7764 18.9004C72.6124 18.7875 72.4484 18.7311 72.2844 18.6182C72.0656 18.5053 71.8467 18.4489 71.6279 18.336C71.4091 18.2796 71.1354 18.2231 70.8074 18.2231C70.2601 18.2231 69.8224 18.336 69.5492 18.6182C69.2755 18.9004 69.1115 19.2391 69.1115 19.6342C69.1115 19.9164 69.1659 20.1421 69.3304 20.3115C69.4944 20.4808 69.6584 20.6501 69.9321 20.763L69.9405 20.7665C70.2113 20.8782 70.4823 20.9899 70.8074 21.1016Z" fill="#183B56"/>
</svg>
