<svg width="201" height="43" viewBox="0 0 201 43" fill="none" xmlns="http://www.w3.org/2000/svg">
<path d="M12.656 8.68H19.2813V0.0703125C16.5632 1.08321 14.1848 4.29073 12.656 8.68Z" fill="#159ED9"/>
<path d="M38.7323 8.67995C36.354 5.47244 33.1263 2.85578 29.3889 1.33643C30.8329 3.36223 32.107 5.81008 32.9564 8.76436H38.7323V8.67995Z" fill="#159ED9"/>
<path d="M34.7399 19.5686H42.6393C42.4694 16.952 41.7899 14.5042 40.6857 12.2251H33.8906C34.4002 14.5042 34.655 16.952 34.7399 19.5686Z" fill="#159ED9"/>
<path d="M22.6789 0.0703125V8.68H29.3041C27.7753 4.29073 25.3969 1.08321 22.6789 0.0703125Z" fill="#159ED9"/>
<path d="M33.8906 30.3728H40.6857C41.705 28.0938 42.3845 25.6459 42.6393 23.0293H34.7399C34.655 25.5615 34.4002 28.0938 33.8906 30.3728Z" fill="#159ED9"/>
<path d="M22.6789 42.4432C25.312 41.4303 27.6903 38.2228 29.3041 33.8335H22.6789V42.4432Z" fill="#159ED9"/>
<path d="M29.3889 41.2614C33.1263 39.6577 36.354 37.1254 38.6473 33.8335H32.9564C32.107 36.7034 30.8329 39.2357 29.3889 41.2614Z" fill="#159ED9"/>
<path d="M3.22757 8.68037H8.91848C9.85284 5.81049 11.042 3.27825 12.486 1.25244C8.8336 2.8562 5.60587 5.47286 3.22757 8.68037Z" fill="#159ED9"/>
<path d="M31.2577 23.0293H22.6789V30.3728H30.2385C30.8331 28.0938 31.1728 25.5615 31.2577 23.0293Z" fill="#159ED9"/>
<path d="M30.3236 12.2251H22.764V19.5686H31.3429C31.173 16.952 30.8332 14.5042 30.3236 12.2251Z" fill="#159ED9"/>
<path d="M16.818 12.2251H2.3783C1.01928 12.2251 0 13.3224 0 14.5886V40.0799C0 41.4304 1.10421 42.4433 2.3783 42.4433H16.818C18.1771 42.4433 19.1963 41.346 19.1963 40.0799V14.5886C19.1963 13.238 18.1771 12.2251 16.818 12.2251ZM11.212 40.7551H8.06926C7.55964 40.7551 7.21985 40.3331 7.21985 39.9111C7.21985 39.4047 7.64452 39.067 8.06926 39.067H11.212C11.7216 39.067 12.0614 39.4891 12.0614 39.9111C12.0614 40.3331 11.6367 40.7551 11.212 40.7551ZM17.4976 36.1127C17.4976 36.7879 16.9879 37.2944 16.3084 37.2944H2.97288C2.29336 37.2944 1.78373 36.7879 1.78373 36.1127V15.095C1.78373 14.4198 2.29336 13.9133 2.97288 13.9133H16.3084C16.9879 13.9133 17.4976 14.4198 17.4976 15.095V36.1127Z" fill="#657684"/>
<path d="M4.33157 17.3737H14.864C15.3737 17.3737 15.7134 16.9517 15.7134 16.5296C15.7134 16.0232 15.2888 15.6855 14.864 15.6855H4.33157C3.82194 15.6855 3.48218 16.1076 3.48218 16.5296C3.48218 17.0361 3.90687 17.3737 4.33157 17.3737Z" fill="#159ED9"/>
<path d="M4.33157 20.8347H9.59779C10.1075 20.8347 10.4472 20.4126 10.4472 19.9906C10.4472 19.4841 10.0225 19.1465 9.59779 19.1465H4.33157C3.82194 19.1465 3.48218 19.5685 3.48218 19.9906C3.48218 20.497 3.90687 20.8347 4.33157 20.8347Z" fill="#159ED9"/>
<path d="M14.864 22.6074H4.33157C3.82194 22.6074 3.48218 23.0295 3.48218 23.4515C3.48218 23.958 3.90687 24.2956 4.33157 24.2956H14.864C15.3737 24.2956 15.7134 23.8736 15.7134 23.4515C15.7134 22.9451 15.3737 22.6074 14.864 22.6074Z" fill="#159ED9"/>
<path d="M13.1653 26.0684H4.33157C3.82194 26.0684 3.48218 26.4904 3.48218 26.9125C3.48218 27.4189 3.90687 27.7566 4.33157 27.7566H13.0803C13.5899 27.7566 13.9297 27.3345 13.9297 26.9125C14.0147 26.406 13.5899 26.0684 13.1653 26.0684Z" fill="#159ED9"/>
<path d="M9.59779 29.4443H4.33157C3.82194 29.4443 3.48218 29.8663 3.48218 30.2884C3.48218 30.7948 3.90687 31.1325 4.33157 31.1325H9.59779C10.1075 31.1325 10.4472 30.7104 10.4472 30.2884C10.5321 29.8663 10.1075 29.4443 9.59779 29.4443Z" fill="#159ED9"/>
<path d="M64.0956 29.2498L67.8855 17.3367C67.9697 17.1677 67.9697 16.9988 68.054 16.7453C68.1385 16.5763 68.1385 16.3228 68.2222 16.1539C68.3066 16.4073 68.3066 16.5763 68.391 16.7453C68.4747 16.9143 68.4747 17.1677 68.5591 17.3367L72.2649 29.2498H75.6339L81.3604 11H78.4127C78.0758 11 77.8233 11.0845 77.5708 11.2535C77.3184 11.4224 77.1496 11.5914 77.1496 11.8449L74.2863 22.1527C74.2019 22.4061 74.1175 22.744 74.1175 22.9975C74.0338 23.3355 73.9494 23.6734 73.9494 24.0114C73.865 23.6734 73.7806 23.3355 73.6969 22.9975C73.6125 22.6596 73.5281 22.4061 73.4437 22.1527L70.0755 11.8449C69.9911 11.5914 69.8223 11.4224 69.6542 11.2535C69.4854 11.0845 69.1485 11 68.896 11H67.8013C67.4644 11 67.2117 11.0845 66.9591 11.2535C66.7065 11.4224 66.6222 11.5914 66.538 11.8449L63.2535 22.1527C63.1692 22.4061 63.085 22.744 63.0008 23.082C62.9166 23.4199 62.8323 23.7579 62.7481 24.0959C62.664 23.7579 62.5797 23.4199 62.5797 23.082C62.4955 22.744 62.4112 22.4061 62.4112 22.1527L59.4636 11.8449C59.3793 11.5914 59.211 11.4224 59.0425 11.2535C58.7898 11.0845 58.5372 11 58.2003 11H55L60.6427 29.2498H64.0956Z" fill="#183B56"/>
<path d="M95.4699 26.2926H87.722V21.4767H93.7854V18.6886H87.722V13.9571H95.4699V11H83.9325V29.2497H95.4699V26.2926Z" fill="#183B56"/>
<path d="M110.664 27.6444C111.254 27.1375 111.674 26.5461 111.927 25.9546C112.264 25.2787 112.348 24.6028 112.348 23.8424C112.348 21.7302 111.169 20.3784 108.727 19.7869C109.317 19.618 109.737 19.3645 110.159 19.111C110.58 18.8575 110.917 18.5195 111.169 18.1816C111.422 17.8437 111.591 17.5057 111.759 17.0833C111.843 16.6608 111.927 16.3228 111.927 15.9004C111.927 15.14 111.843 14.4641 111.591 13.8726C111.337 13.2812 110.917 12.7743 110.411 12.3518C109.822 11.9294 109.148 11.5914 108.306 11.338C107.463 11.0845 106.369 11 105.19 11H98.7055V29.2497H105.78C106.874 29.2497 107.8 29.0808 108.643 28.8273C109.4 28.4893 110.074 28.1514 110.664 27.6444ZM105.106 13.7882C105.611 13.7882 106.117 13.8726 106.453 13.9571C106.874 14.0416 107.126 14.2106 107.38 14.3796C107.632 14.5486 107.8 14.802 107.969 15.14C108.053 15.4779 108.137 15.8159 108.137 16.3228C108.137 16.7453 108.053 17.1677 107.885 17.4212C107.717 17.7592 107.548 18.0126 107.211 18.1816C106.958 18.3506 106.621 18.5195 106.2 18.6041C105.78 18.6886 105.358 18.773 104.769 18.773H102.326V13.7882H105.106ZM108.053 25.4477C107.8 25.7012 107.548 25.8702 107.126 26.0392C106.706 26.2081 106.2 26.2926 105.611 26.2926H102.411V21.3078H105.611C106.2 21.3078 106.621 21.3922 107.043 21.4767C107.463 21.5612 107.717 21.7302 107.969 21.9837C108.222 22.1526 108.39 22.4061 108.474 22.7441C108.558 22.9975 108.643 23.3355 108.643 23.7579C108.643 24.0959 108.558 24.4338 108.474 24.7718C108.474 24.9408 108.306 25.2787 108.053 25.4477Z" fill="#183B56"/>
<path d="M130.552 19.9291C130.3 19.7606 130.048 19.5922 129.796 19.508C130.216 19.3395 130.552 18.9183 130.972 18.4971L136.765 11H133.49C133.155 11 132.819 11.0842 132.567 11.1685C132.315 11.2527 132.063 11.5055 131.895 11.7581L127.277 17.9074C127.025 18.3286 126.521 18.4971 125.934 18.4971H125.178V11H121.4V29.1951H125.178V21.2769H126.27C126.689 21.2769 126.941 21.3611 127.193 21.4454C127.445 21.5296 127.613 21.6981 127.781 21.9508L132.483 28.5212C132.567 28.6055 132.651 28.774 132.735 28.8582C132.819 28.9425 132.903 29.0267 133.071 29.1109C133.155 29.1951 133.323 29.1951 133.49 29.2794C133.658 29.2794 133.826 29.3636 134.078 29.3636H137.436L131.475 20.8557C130.972 20.3503 130.804 20.0976 130.552 19.9291Z" fill="#183B56"/>
<path d="M145.02 11.1685L137.967 29.3636H140.906C141.242 29.3636 141.494 29.2794 141.661 29.1109C141.83 28.9424 141.997 28.774 142.081 28.5213L143.341 25.0676H150.562L151.821 28.5213C151.905 28.774 152.073 28.9424 152.241 29.1109C152.409 29.2794 152.745 29.3636 152.997 29.3636H155.936L148.883 11.1685H145.02ZM144.264 22.4562L146.196 16.8966C146.28 16.6438 146.447 16.2227 146.531 15.8857C146.616 15.4645 146.783 15.0434 146.867 14.6221C146.951 15.0434 147.119 15.4645 147.287 15.8857C147.455 16.3069 147.539 16.6438 147.623 16.8966L149.554 22.4562H144.264Z" fill="#183B56"/>
<path d="M163.39 18.4128L164.901 18.9183C165.375 19.0582 166.385 19.3327 167.404 20.0198C168.488 20.7508 169.183 21.9911 169.183 23.2986C169.183 24.1409 169.015 24.8991 168.763 25.6572C168.428 26.4153 168.008 27.0892 167.504 27.5947C166.916 28.1001 166.245 28.5212 165.489 28.8582C164.733 29.1951 163.809 29.3636 162.802 29.3636C162.298 29.3636 161.711 29.2794 161.123 29.1951L161.113 29.1924C160.529 29.0248 159.944 28.8573 159.444 28.6897C158.856 28.437 158.436 28.1843 157.932 27.9316C157.428 27.5947 157.008 27.2577 156.673 26.9208L157.764 25.1518C157.848 24.9833 157.932 24.8991 158.1 24.8148L158.102 24.8138C158.27 24.7299 158.437 24.6464 158.604 24.6464C158.772 24.6464 159.023 24.7306 159.275 24.8991C159.528 25.0675 159.779 25.3203 160.115 25.4887C160.367 25.7411 160.786 25.9095 161.205 26.0777L161.206 26.0784C161.626 26.2469 162.131 26.3311 162.718 26.3311C163.558 26.3311 164.229 26.1626 164.733 25.7414C165.237 25.4045 165.489 24.7306 165.489 23.9725C165.489 23.5513 165.405 23.1301 165.153 22.8774C164.901 22.6247 164.649 22.372 164.229 22.2035L164.221 22.2003C163.804 22.0329 163.387 21.8655 162.886 21.6981C162.382 21.6139 161.878 21.4454 161.375 21.2769C160.87 21.1084 160.367 20.94 159.864 20.6872C159.359 20.4345 158.939 20.1819 158.52 19.7606C158.184 19.3395 157.848 18.9183 157.596 18.3286C157.344 17.7389 157.261 17.065 157.261 16.2227C157.261 15.5488 157.428 14.9591 157.68 14.2852C157.932 13.6956 158.352 13.1059 158.856 12.6005C159.359 12.0951 160.031 11.7581 160.787 11.4212C161.542 11.1685 162.382 11 163.39 11C164.481 11 165.489 11.1685 166.412 11.5055C167.336 11.8424 168.092 12.3478 168.763 12.9375L167.84 14.7064C167.756 14.8749 167.588 15.0434 167.504 15.1276L167.502 15.1284C167.335 15.2124 167.168 15.2961 167 15.2961C166.832 15.2961 166.664 15.2961 166.412 15.1276C166.161 14.9591 165.909 14.8749 165.657 14.7064C165.321 14.538 164.985 14.4537 164.649 14.2852C164.314 14.201 163.893 14.1167 163.39 14.1167C162.55 14.1167 161.878 14.2852 161.459 14.7064C161.039 15.1276 160.787 15.633 160.787 16.2227C160.787 16.6439 160.87 16.9808 161.123 17.2336C161.375 17.4863 161.626 17.7389 162.046 17.9074L162.059 17.9127C162.475 18.0794 162.891 18.2461 163.39 18.4128Z" fill="#183B56"/>
<path d="M193.312 11.1685H189.45L182.313 29.3636H185.252C185.588 29.3636 185.839 29.2794 186.007 29.1109C186.175 28.9424 186.343 28.774 186.427 28.5213L187.686 25.0676H194.908L196.167 28.5213C196.251 28.774 196.419 28.9424 196.587 29.1109C196.755 29.2794 197.09 29.3636 197.342 29.3636H200.281L193.312 11.1685ZM188.694 22.4562L190.625 16.8966C190.709 16.6438 190.877 16.2227 190.961 15.8857C191.045 15.4645 191.213 15.0434 191.297 14.6221C191.381 15.0434 191.549 15.4645 191.717 15.8857C191.885 16.3069 191.969 16.6438 192.053 16.8966L193.984 22.4562H188.694Z" fill="#183B56"/>
<path d="M176.962 18.4128L178.473 18.9183C178.948 19.0582 179.957 19.3327 180.976 20.0198C182.06 20.7508 182.756 21.9911 182.756 23.2986C182.756 24.1409 182.587 24.8991 182.336 25.6572C182 26.4153 181.58 27.0892 181.076 27.5947C180.489 28.1001 179.817 28.5212 179.061 28.8582C178.305 29.1951 177.382 29.3636 176.374 29.3636C175.87 29.3636 175.283 29.2794 174.695 29.1951L174.686 29.1924C174.101 29.0248 173.517 28.8573 173.016 28.6897C172.428 28.437 172.008 28.1843 171.505 27.9316C171 27.5947 170.58 27.2577 170.245 26.9208L171.336 25.1518C171.421 24.9833 171.505 24.8991 171.672 24.8148L171.674 24.8138C171.842 24.7299 172.009 24.6464 172.176 24.6464C172.344 24.6464 172.596 24.7306 172.848 24.8991C173.1 25.0675 173.352 25.3203 173.688 25.4887C173.939 25.7411 174.358 25.9095 174.777 26.0777L174.779 26.0784C175.199 26.2469 175.703 26.3311 176.291 26.3311C177.13 26.3311 177.802 26.1626 178.305 25.7414C178.809 25.4045 179.061 24.7306 179.061 23.9725C179.061 23.5513 178.977 23.1301 178.725 22.8774C178.473 22.6247 178.222 22.372 177.802 22.2035L177.794 22.2003C177.376 22.0329 176.959 21.8655 176.458 21.6981C175.955 21.6139 175.45 21.4454 174.947 21.2769C174.443 21.1084 173.939 20.94 173.436 20.6872C172.932 20.4345 172.512 20.1819 172.092 19.7606C171.756 19.3395 171.421 18.9183 171.169 18.3286C170.916 17.7389 170.833 17.065 170.833 16.2227C170.833 15.5488 171 14.9591 171.252 14.2852C171.505 13.6956 171.924 13.1059 172.428 12.6005C172.932 12.0951 173.603 11.7581 174.359 11.4212C175.115 11.1685 175.955 11 176.962 11C178.053 11 179.061 11.1685 179.985 11.5055C180.908 11.8424 181.664 12.3478 182.336 12.9375L181.412 14.7064C181.328 14.8749 181.161 15.0434 181.076 15.1276L181.075 15.1284C180.907 15.2124 180.74 15.2961 180.572 15.2961C180.405 15.2961 180.236 15.2961 179.985 15.1276C179.733 14.9591 179.481 14.8749 179.229 14.7064C178.893 14.538 178.558 14.4537 178.222 14.2852C177.886 14.201 177.466 14.1167 176.962 14.1167C176.122 14.1167 175.45 14.2852 175.031 14.7064C174.611 15.1276 174.359 15.633 174.359 16.2227C174.359 16.6439 174.443 16.9808 174.695 17.2336C174.947 17.4863 175.199 17.7389 175.619 17.9074L175.632 17.9127C176.047 18.0794 176.463 18.2461 176.962 18.4128Z" fill="#183B56"/>
</svg>
