<svg width="132" height="43" viewBox="0 0 132 43" fill="none" xmlns="http://www.w3.org/2000/svg">
<path d="M12.656 8.78059H19.2813V0.170898C16.5632 1.1838 14.1849 4.39132 12.656 8.78059Z" fill="#159ED9"/>
<path d="M38.7323 8.78102C36.354 5.57352 33.1263 2.95685 29.3889 1.4375C30.8329 3.46331 32.107 5.91115 32.9564 8.86543H38.7323V8.78102Z" fill="#159ED9"/>
<path d="M34.74 19.6697H42.6393C42.4695 17.0531 41.79 14.6052 40.6857 12.3262H33.8906C34.4002 14.6052 34.655 17.0531 34.74 19.6697Z" fill="#159ED9"/>
<path d="M22.679 0.170898V8.78059H29.3042C27.7754 4.39132 25.397 1.1838 22.679 0.170898Z" fill="#159ED9"/>
<path d="M33.8906 30.4734H40.6857C41.705 28.1944 42.3846 25.7465 42.6393 23.1299H34.74C34.655 25.6621 34.4002 28.1944 33.8906 30.4734Z" fill="#159ED9"/>
<path d="M22.679 42.5443C25.3121 41.5313 27.6904 38.3238 29.3042 33.9346H22.679V42.5443Z" fill="#159ED9"/>
<path d="M29.3889 41.3625C33.1263 39.7588 36.354 37.2265 38.6473 33.9346H32.9564C32.107 36.8045 30.8329 39.3367 29.3889 41.3625Z" fill="#159ED9"/>
<path d="M3.22754 8.78047H8.91845C9.85281 5.91059 11.042 3.37835 12.4859 1.35254C8.83357 2.9563 5.60584 5.57296 3.22754 8.78047Z" fill="#159ED9"/>
<path d="M31.2578 23.1299H22.679V30.4734H30.2386C30.8332 28.1944 31.1729 25.6621 31.2578 23.1299Z" fill="#159ED9"/>
<path d="M30.3236 12.3262H22.7639V19.6697H31.3428C31.173 17.0531 30.8332 14.6052 30.3236 12.3262Z" fill="#159ED9"/>
<path d="M16.818 12.3262H2.3783C1.01928 12.3262 0 13.4235 0 14.6897V40.1809C0 41.5315 1.10421 42.5444 2.3783 42.5444H16.818C18.1771 42.5444 19.1963 41.4471 19.1963 40.1809V14.6897C19.1963 13.3391 18.1771 12.3262 16.818 12.3262ZM11.212 40.8562H8.06926C7.55964 40.8562 7.21985 40.4342 7.21985 40.0122C7.21985 39.5057 7.64452 39.1681 8.06926 39.1681H11.212C11.7216 39.1681 12.0614 39.5901 12.0614 40.0122C12.0614 40.4342 11.6367 40.8562 11.212 40.8562ZM17.4976 36.2138C17.4976 36.889 16.9879 37.3955 16.3084 37.3955H2.97288C2.29336 37.3955 1.78373 36.889 1.78373 36.2138V15.1961C1.78373 14.5208 2.29336 14.0144 2.97288 14.0144H16.3084C16.9879 14.0144 17.4976 14.5208 17.4976 15.1961V36.2138Z" fill="#657684"/>
<path d="M4.33157 17.4743H14.864C15.3737 17.4743 15.7134 17.0523 15.7134 16.6302C15.7134 16.1238 15.2888 15.7861 14.864 15.7861H4.33157C3.82194 15.7861 3.48218 16.2082 3.48218 16.6302C3.48218 17.1367 3.90687 17.4743 4.33157 17.4743Z" fill="#159ED9"/>
<path d="M4.33157 20.9353H9.59779C10.1075 20.9353 10.4472 20.5132 10.4472 20.0912C10.4472 19.5847 10.0225 19.2471 9.59779 19.2471H4.33157C3.82194 19.2471 3.48218 19.6691 3.48218 20.0912C3.48218 20.5976 3.90687 20.9353 4.33157 20.9353Z" fill="#159ED9"/>
<path d="M14.864 22.708H4.33157C3.82194 22.708 3.48218 23.1301 3.48218 23.5521C3.48218 24.0586 3.90687 24.3962 4.33157 24.3962H14.864C15.3737 24.3962 15.7134 23.9742 15.7134 23.5521C15.7134 23.0456 15.3737 22.708 14.864 22.708Z" fill="#159ED9"/>
<path d="M13.1653 26.1689H4.33157C3.82194 26.1689 3.48218 26.591 3.48218 27.013C3.48218 27.5195 3.90687 27.8571 4.33157 27.8571H13.0803C13.5899 27.8571 13.9297 27.4351 13.9297 27.013C14.0147 26.5066 13.5899 26.1689 13.1653 26.1689Z" fill="#159ED9"/>
<path d="M9.59779 29.5449H4.33157C3.82194 29.5449 3.48218 29.9669 3.48218 30.389C3.48218 30.8954 3.90687 31.2331 4.33157 31.2331H9.59779C10.1075 31.2331 10.4472 30.811 10.4472 30.389C10.5321 29.9669 10.1075 29.5449 9.59779 29.5449Z" fill="#159ED9"/>
<path d="M60.696 18.3504L64.4859 6.4373C64.5701 6.26832 64.5701 6.09935 64.6543 5.84588C64.7389 5.6769 64.7389 5.42343 64.8226 5.25445C64.907 5.50792 64.907 5.6769 64.9914 5.84588C65.075 6.01486 65.075 6.26832 65.1594 6.4373L68.8653 18.3504H72.2342L77.9607 0.100586H75.0131C74.6762 0.100586 74.4237 0.185075 74.1712 0.354055C73.9187 0.523034 73.7499 0.692013 73.7499 0.945481L70.8867 11.2532C70.8022 11.5067 70.7178 11.8446 70.7178 12.0981C70.6342 12.4361 70.5498 12.774 70.5498 13.112C70.4654 12.774 70.381 12.4361 70.2973 12.0981C70.2129 11.7601 70.1285 11.5067 70.0441 11.2532L66.6758 0.945481C66.5914 0.692013 66.4226 0.523034 66.2545 0.354055C66.0857 0.185075 65.7488 0.100586 65.4963 0.100586H64.4016C64.0648 0.100586 63.8121 0.185075 63.5594 0.354055C63.3068 0.523034 63.2226 0.692013 63.1384 0.945481L59.8538 11.2532C59.7696 11.5067 59.6854 11.8446 59.6011 12.1826C59.5169 12.5205 59.4327 12.8585 59.3485 13.1964C59.2643 12.8585 59.18 12.5205 59.18 12.1826C59.0959 11.8446 59.0116 11.5067 59.0116 11.2532L56.0639 0.945481C55.9797 0.692013 55.8113 0.523034 55.6429 0.354055C55.3902 0.185075 55.1375 0.100586 54.8006 0.100586H51.6003L57.243 18.3504H60.696Z" fill="#183B56"/>
<path d="M92.0701 15.3932H84.3222V10.5773H90.3856V7.78915H84.3222V3.05772H92.0701V0.100586H80.5327V18.3503H92.0701V15.3932Z" fill="#183B56"/>
<path d="M107.264 16.745C107.854 16.2381 108.275 15.6467 108.528 15.0552C108.865 14.3793 108.948 13.7034 108.948 12.943C108.948 10.8308 107.77 9.47894 105.327 8.88749C105.917 8.71855 106.338 8.46506 106.759 8.21158C107.18 7.95809 107.517 7.62013 107.77 7.28218C108.022 6.94425 108.191 6.60629 108.359 6.18384C108.443 5.76139 108.528 5.42343 108.528 5.00098C108.528 4.24057 108.443 3.56466 108.191 2.97324C107.938 2.38181 107.517 1.87487 107.011 1.45242C106.422 1.02997 105.748 0.692013 104.906 0.438545C104.064 0.185075 102.969 0.100586 101.79 0.100586H95.3059V18.3503H102.38C103.474 18.3503 104.401 18.1814 105.243 17.9279C106.001 17.5899 106.674 17.252 107.264 16.745ZM101.706 2.88874C102.211 2.88874 102.717 2.97324 103.054 3.05772C103.474 3.14221 103.727 3.31119 103.98 3.48017C104.233 3.64915 104.401 3.90262 104.569 4.24057C104.654 4.57853 104.738 4.91649 104.738 5.42343C104.738 5.84588 104.654 6.26832 104.485 6.5218C104.317 6.85975 104.148 7.11323 103.811 7.28218C103.559 7.45119 103.222 7.62013 102.801 7.70468C102.38 7.78915 101.959 7.87362 101.369 7.87362H98.9266V2.88874H101.706ZM104.654 14.5483C104.401 14.8018 104.148 14.9707 103.727 15.1398C103.306 15.3087 102.801 15.3932 102.211 15.3932H99.011V10.4083H102.211C102.801 10.4083 103.222 10.4928 103.643 10.5773C104.064 10.6618 104.317 10.8308 104.569 11.0843C104.822 11.2532 104.991 11.5067 105.074 11.8446C105.159 12.0981 105.243 12.4361 105.243 12.8585C105.243 13.1965 105.159 13.5344 105.074 13.8724C105.074 14.0413 104.906 14.3793 104.654 14.5483Z" fill="#183B56"/>
<path d="M62.2707 33.1098C62.0188 32.9413 61.7669 32.7728 61.515 32.6886C61.9349 32.5201 62.2707 32.099 62.6905 31.6778L68.4836 24.1807H65.2094C64.8735 24.1807 64.5377 24.2649 64.2858 24.3492C64.0339 24.4334 63.782 24.6861 63.6141 24.9388L58.9961 31.0881C58.7442 31.5093 58.2405 31.6778 57.6527 31.6778H56.897V24.1807H53.1187V42.3758H56.897V34.4576H57.9885C58.4083 34.4576 58.6603 34.5418 58.9122 34.626C59.164 34.7103 59.332 34.8787 59.4999 35.1315L64.2018 41.7019C64.2858 41.7862 64.3698 41.9546 64.4537 42.0388C64.5377 42.1231 64.6217 42.2074 64.7896 42.2916C64.8735 42.3758 65.0415 42.3758 65.2094 42.4601C65.3774 42.4601 65.5452 42.5443 65.7972 42.5443H69.1554L63.1943 34.0364C62.6905 33.531 62.5225 33.2782 62.2707 33.1098Z" fill="#183B56"/>
<path d="M76.7392 24.3486L69.6863 42.5438H72.6251C72.961 42.5438 73.2127 42.4595 73.3803 42.2911C73.5486 42.1226 73.7162 41.9542 73.8004 41.7014L75.0598 38.2477H82.2809L83.5403 41.7014C83.6238 41.9542 83.7921 42.1226 83.9597 42.2911C84.128 42.4595 84.4639 42.5438 84.7156 42.5438H87.6544L80.6015 24.3486H76.7392ZM75.9833 35.6364L77.9144 30.0767C77.9986 29.824 78.1662 29.4028 78.2503 29.0659C78.3345 28.6447 78.5021 28.2236 78.5862 27.8023C78.6704 28.2236 78.8379 28.6447 79.0062 29.0659C79.1738 29.4871 79.258 29.824 79.3421 30.0767L81.2733 35.6364H75.9833Z" fill="#183B56"/>
<path d="M95.1089 31.5935L96.62 32.099C97.0944 32.2388 98.1039 32.5134 99.1227 33.2004C100.207 33.9315 100.902 35.1717 100.902 36.4793C100.902 37.3216 100.734 38.0798 100.482 38.8379C100.146 39.596 99.7264 40.2699 99.2229 40.7753C98.6353 41.2807 97.9635 41.7019 97.2076 42.0388C96.4517 42.3758 95.5282 42.5443 94.5205 42.5443C94.0171 42.5443 93.4294 42.4601 92.8418 42.3758L92.8321 42.373C92.2477 42.2055 91.6631 42.0379 91.1624 41.8704C90.5748 41.6177 90.1547 41.365 89.6512 41.1123C89.1471 40.7753 88.727 40.4384 88.3918 40.1015L89.483 38.3324C89.5671 38.164 89.6512 38.0798 89.8188 37.9955L89.821 37.9944C89.9885 37.9106 90.1554 37.827 90.323 37.827C90.4906 37.827 90.7423 37.9113 90.9941 38.0798C91.2465 38.2482 91.4983 38.5009 91.8342 38.6694C92.0855 38.9218 92.5047 39.0901 92.9235 39.2583L92.9253 39.2591C93.3453 39.4276 93.8495 39.5118 94.4371 39.5118C95.2765 39.5118 95.9482 39.3433 96.4517 38.9221C96.9559 38.5852 97.2076 37.9113 97.2076 37.1532C97.2076 36.732 97.1235 36.3108 96.8717 36.0581C96.62 35.8054 96.3683 35.5526 95.9482 35.3842L95.9403 35.381C95.5229 35.2136 95.1057 35.0462 94.6047 34.8787C94.1012 34.7945 93.597 34.626 93.0935 34.4576C92.5894 34.2891 92.0859 34.1206 91.5824 33.8679C91.0782 33.6152 90.6582 33.3625 90.2389 32.9413C89.903 32.5201 89.5671 32.099 89.3154 31.5093C89.0629 30.9196 88.9795 30.2457 88.9795 29.4034C88.9795 28.7295 89.1471 28.1398 89.3988 27.4659C89.6512 26.8762 90.0706 26.2866 90.5748 25.7812C91.0782 25.2757 91.75 24.9388 92.5059 24.6018C93.2611 24.3492 94.1012 24.1807 95.1089 24.1807C96.2 24.1807 97.2076 24.3492 98.1311 24.6861C99.0546 25.0231 99.8106 25.5285 100.482 26.1181L99.5588 27.8871C99.4747 28.0556 99.3071 28.224 99.2229 28.3082L99.2213 28.3091C99.0535 28.3931 98.8865 28.4768 98.7188 28.4768C98.5512 28.4768 98.3829 28.4768 98.1311 28.3082C97.8794 28.1398 97.6277 28.0556 97.3759 27.8871C97.04 27.7186 96.7042 27.6343 96.3683 27.4659C96.0324 27.3817 95.6123 27.2974 95.1089 27.2974C94.2688 27.2974 93.597 27.4659 93.1777 27.8871C92.7577 28.3082 92.5059 28.8137 92.5059 29.4034C92.5059 29.8245 92.5894 30.1615 92.8418 30.4142C93.0936 30.6669 93.3453 30.9196 93.7653 31.0881L93.7783 31.0933C94.194 31.26 94.6099 31.4268 95.1089 31.5935Z" fill="#183B56"/>
<path d="M125.031 24.3486H121.169L114.032 42.5438H116.971C117.306 42.5438 117.558 42.4595 117.726 42.2911C117.894 42.1226 118.062 41.9542 118.146 41.7014L119.405 38.2477H126.626L127.886 41.7014C127.97 41.9542 128.138 42.1226 128.306 42.2911C128.473 42.4595 128.809 42.5438 129.061 42.5438H132L125.031 24.3486ZM120.413 35.6364L122.344 30.0767C122.428 29.824 122.596 29.4028 122.68 29.0659C122.764 28.6447 122.932 28.2236 123.016 27.8023C123.1 28.2236 123.268 28.6447 123.436 29.0659C123.603 29.4871 123.688 29.824 123.772 30.0767L125.703 35.6364H120.413Z" fill="#183B56"/>
<path d="M108.681 31.5935L110.192 32.099C110.667 32.2388 111.676 32.5134 112.695 33.2004C113.779 33.9315 114.475 35.1717 114.475 36.4793C114.475 37.3216 114.306 38.0798 114.055 38.8379C113.719 39.596 113.299 40.2699 112.795 40.7753C112.208 41.2807 111.536 41.7019 110.78 42.0388C110.024 42.3758 109.1 42.5443 108.093 42.5443C107.589 42.5443 107.002 42.4601 106.414 42.3758L106.404 42.373C105.82 42.2055 105.235 42.0379 104.735 41.8704C104.147 41.6177 103.727 41.365 103.224 41.1123C102.719 40.7753 102.299 40.4384 101.964 40.1015L103.055 38.3324C103.139 38.164 103.224 38.0798 103.391 37.9955L103.393 37.9944C103.561 37.9106 103.728 37.827 103.895 37.827C104.063 37.827 104.315 37.9113 104.566 38.0798C104.819 38.2482 105.071 38.5009 105.406 38.6694C105.658 38.9218 106.077 39.0901 106.496 39.2583L106.498 39.2591C106.918 39.4276 107.422 39.5118 108.009 39.5118C108.849 39.5118 109.52 39.3433 110.024 38.9221C110.528 38.5852 110.78 37.9113 110.78 37.1532C110.78 36.732 110.696 36.3108 110.444 36.0581C110.192 35.8054 109.941 35.5526 109.52 35.3842L109.513 35.381C109.095 35.2136 108.678 35.0462 108.177 34.8787C107.673 34.7945 107.169 34.626 106.666 34.4576C106.162 34.2891 105.658 34.1206 105.155 33.8679C104.65 33.6152 104.23 33.3625 103.811 32.9413C103.475 32.5201 103.139 32.099 102.888 31.5093C102.635 30.9196 102.552 30.2457 102.552 29.4034C102.552 28.7295 102.719 28.1398 102.971 27.4659C103.224 26.8762 103.643 26.2866 104.147 25.7812C104.65 25.2757 105.322 24.9388 106.078 24.6018C106.833 24.3492 107.673 24.1807 108.681 24.1807C109.772 24.1807 110.78 24.3492 111.703 24.6861C112.627 25.0231 113.383 25.5285 114.055 26.1181L113.131 27.8871C113.047 28.0556 112.879 28.224 112.795 28.3082L112.794 28.3091C112.626 28.3931 112.459 28.4768 112.291 28.4768C112.123 28.4768 111.955 28.4768 111.703 28.3082C111.452 28.1398 111.2 28.0556 110.948 27.8871C110.612 27.7186 110.276 27.6343 109.941 27.4659C109.605 27.3817 109.185 27.2974 108.681 27.2974C107.841 27.2974 107.169 27.4659 106.75 27.8871C106.33 28.3082 106.078 28.8137 106.078 29.4034C106.078 29.8245 106.162 30.1615 106.414 30.4142C106.666 30.6669 106.918 30.9196 107.338 31.0881L107.351 31.0933C107.766 31.26 108.182 31.4268 108.681 31.5935Z" fill="#183B56"/>
</svg>
