<svg width="105" height="33" viewBox="0 0 105 33" fill="none" xmlns="http://www.w3.org/2000/svg">
<path fill-rule="evenodd" clip-rule="evenodd" d="M0.513916 32.0184V2.12973H18.8242V8.69268H8.4568V13.8757H18.231V20.2724H8.4568V32.0184H0.513916ZM21.5397 32.0185V11.4097H28.4036V16.266C29.1143 14.4892 30.0758 13.1651 31.301 12.281C32.5276 11.3954 34.0122 10.9497 35.7532 10.9497C36.0398 10.9497 36.3321 10.9569 36.6244 10.977C36.9168 10.9985 37.2091 11.0343 37.51 11.0758L36.7993 17.6803C36.3679 17.5342 35.9352 17.4296 35.5168 17.3608C35.0926 17.2963 34.6885 17.2619 34.2916 17.2619C32.5276 17.2619 31.1706 17.805 30.2077 18.8855C29.2533 19.9659 28.7733 21.4977 28.7733 23.4838V32.0185H21.5397ZM53.1379 19.0602C52.9974 17.8895 52.5518 16.948 51.7995 16.2373C51.04 15.528 50.1129 15.1712 49.0052 15.1712C47.8216 15.1712 46.8744 15.4922 46.1694 16.1413C45.473 16.789 45.0058 17.7648 44.7694 19.0602H53.1379ZM60.2854 23.1556H44.6089C44.6232 24.7462 45.0331 25.9714 45.8355 26.8355C46.6437 27.6981 47.7786 28.1309 49.2488 28.1309C50.3565 28.1309 51.2836 27.9231 52.0431 27.5118C52.7954 27.0934 53.3743 26.4801 53.7712 25.6647L59.2394 27.8672C58.5845 29.4477 57.4296 30.6672 55.7716 31.5241C54.1051 32.381 52.0703 32.8138 49.6601 32.8138C46.0662 32.8138 43.1802 31.8164 41.0136 29.8246C38.8398 27.8242 37.7536 25.1976 37.7536 21.9304C37.7536 18.7192 38.8398 16.0496 41.0064 13.9245C43.1802 11.7994 45.9258 10.7405 49.2416 10.7405C52.6564 10.7405 55.3532 11.8138 57.325 13.9661C59.2967 16.1198 60.2854 19.0674 60.2854 22.8074V23.1556ZM61.2814 30.3061L62.7931 24.7462C63.8592 25.6719 65.0242 26.3812 66.2967 26.8842C67.5735 27.3785 68.8545 27.6307 70.1442 27.6307C71.057 27.6307 71.7534 27.4832 72.2277 27.1908C72.7078 26.8985 72.9442 26.4729 72.9442 25.9155C72.9442 25.0041 71.9827 24.3206 70.0597 23.8678C69.4335 23.7216 68.9248 23.5884 68.5479 23.4838C66.3669 22.8848 64.7921 22.0981 63.8034 21.1223C62.8204 20.1536 62.326 18.8854 62.326 17.3392C62.326 15.3331 63.0783 13.7368 64.5843 12.5388C66.0889 11.3395 68.1237 10.7405 70.6945 10.7405C72.0171 10.7405 73.3626 10.8938 74.7282 11.2005C76.0924 11.5085 77.4953 11.9814 78.9225 12.6219L77.4107 17.6387C76.4492 16.9839 75.4676 16.4809 74.4689 16.1413C73.4744 15.7988 72.4857 15.6312 71.4883 15.6312C70.6586 15.6312 70.0324 15.7644 69.6083 16.0224C69.1827 16.2803 68.972 16.6557 68.972 17.1429C68.972 17.8752 69.9264 18.4956 71.8351 19.0043C72.275 19.1218 72.6032 19.2136 72.8195 19.2694C75.3344 19.9874 77.084 20.8357 78.0713 21.8043C79.0558 22.7816 79.5487 24.0985 79.5487 25.755C79.5487 27.86 78.742 29.5667 77.1184 30.8621C75.502 32.1661 73.3555 32.8138 70.6945 32.8138C68.8818 32.8138 67.2023 32.6045 65.649 32.1933C64.0957 31.7749 62.6398 31.1487 61.2814 30.3061ZM82.1753 32.0185V0.373047H89.3244V11.4799C89.3244 12.2107 89.3029 12.8942 89.2627 13.5204C89.2197 14.1481 89.1639 14.7127 89.0807 15.2142C89.9921 13.6738 91.0654 12.546 92.2992 11.8209C93.5401 11.103 95.0175 10.7405 96.7242 10.7405C98.0611 10.7405 99.2447 10.9569 100.284 11.3825C101.323 11.8138 102.171 12.4271 102.821 13.2353C103.37 13.9245 103.754 14.7743 103.984 15.7644C104.213 16.7604 104.332 18.2449 104.332 20.2166V32.0185H97.058V20.9761C97.058 19.3253 96.7872 18.1331 96.2498 17.3808C95.7139 16.6357 94.8556 16.2588 93.672 16.2588C92.1602 16.2588 91.0597 16.8162 90.3618 17.9311C89.6726 19.0459 89.3244 20.8572 89.3244 23.3663V32.0185H82.1753Z" fill="#686C72"/>
<path fill-rule="evenodd" clip-rule="evenodd" d="M49.7603 7.85303C51.8496 3.9124 54.7872 2.40636 59.8942 2.49807C57.7462 8.04362 54.7413 10.1071 48.7931 9.9996C48.1253 7.94044 46.9388 6.15784 44.9585 4.79797C45.45 4.05283 45.9415 3.30769 46.4344 2.56112C48.2084 4.22622 49.2001 6.00738 49.7603 7.85303Z" fill="#686C72"/>
</svg>
