<svg width="130" height="36" viewBox="0 0 130 36" fill="none" xmlns="http://www.w3.org/2000/svg">
<path fill-rule="evenodd" clip-rule="evenodd" d="M1.84456 31.8926C3.07845 34.0317 5.2894 35.3088 7.75884 35.3088H7.75888C10.5593 35.3088 13.17 33.8028 14.5721 31.3786L17.8525 25.707H1.5185C0.623835 27.7004 0.73246 29.9646 1.84456 31.8926Z" fill="#52AA75"/>
<path fill-rule="evenodd" clip-rule="evenodd" d="M29.249 31.3734C30.6505 33.8008 33.2624 35.3088 36.0653 35.3088H36.0669C38.5366 35.3088 40.7482 34.0319 41.983 31.8931C43.0958 29.9657 43.2057 27.7011 42.3128 25.707H25.9775L29.249 31.3734Z" fill="#52AA75"/>
<path fill-rule="evenodd" clip-rule="evenodd" d="M40.8651 23.1261L34.9993 12.9692H8.83286L2.96704 23.1261H40.8651Z" fill="#52AA75"/>
<path fill-rule="evenodd" clip-rule="evenodd" d="M22.234 0.373047H21.6106C18.2184 0.373047 15.0572 2.19785 13.3606 5.13529L10.3245 10.3878H33.5109L30.4834 5.13425C28.7874 2.19785 25.6262 0.373047 22.234 0.373047Z" fill="#52AA75"/>
<path fill-rule="evenodd" clip-rule="evenodd" d="M53.5725 21.7561C53.5725 19.7262 54.471 18.2287 56.1681 17.5632C56.9335 17.2637 58.2645 17.0973 60.1613 17.0973H61.1596C61.9915 17.0973 62.7236 17.1306 63.3891 17.1971V15.3004C63.3891 12.8712 62.1579 12.0393 59.3626 12.0393C58.198 12.0393 57.0666 12.2056 55.9351 12.5384C55.436 12.6715 55.1698 12.6715 55.07 12.2722L54.9036 11.5734C54.7705 11.1741 54.8703 10.9411 55.2696 10.8413C56.7005 10.4087 58.1314 10.1758 59.529 10.1758C63.7884 10.1758 65.5521 11.6067 65.5521 15.0674V26.448C65.5521 26.7143 65.4855 26.7808 65.186 26.7808H64.0879C63.7884 26.7808 63.6553 26.681 63.6553 26.448L63.5888 25.3167H63.5222C62.7902 26.4813 61.6254 27.0803 59.9949 27.0803H58.3311C56.8669 27.0803 55.5358 26.6477 54.7705 25.8823C53.9718 25.0837 53.5725 24.0522 53.5725 22.7543V21.7561ZM55.7688 22.488C55.7688 23.5196 56.0017 24.2184 56.4676 24.651C56.9002 25.0503 57.5657 25.2499 58.4975 25.2499H59.8618C62.0913 25.2499 63.3891 24.052 63.3891 21.7892V19.0272C62.8567 18.9607 62.1912 18.9274 61.3925 18.9274H59.529C58.1314 18.9274 57.1664 19.1603 56.6007 19.5929C56.035 20.0255 55.7688 20.7576 55.7688 21.7892V22.488Z" fill="#52AA75"/>
<path fill-rule="evenodd" clip-rule="evenodd" d="M70.0771 4.61851C70.0771 4.38558 70.2102 4.25244 70.4764 4.25244H71.8408C72.107 4.25244 72.2401 4.38558 72.2401 4.61851V22.4215C72.2401 23.6195 72.2734 24.0188 72.5396 24.5179C72.706 24.7509 73.1053 24.884 73.7376 24.884H74.636C74.8357 24.884 75.0354 24.9172 75.0354 25.25V26.3814C75.0354 26.6476 74.9355 26.7808 74.7026 26.7808H73.4381C72.2401 26.7808 71.3749 26.5145 70.8758 26.0154C70.3433 25.4497 70.0771 24.4181 70.0771 22.9539V4.61851Z" fill="#52AA75"/>
<path fill-rule="evenodd" clip-rule="evenodd" d="M78.2964 6.08258C78.2964 5.01773 78.8954 4.51855 79.8272 4.51855H79.9602C80.9253 4.51855 81.4244 5.05098 81.4244 6.08258V6.28223C81.4244 7.34708 80.8587 7.87951 79.9602 7.87951H79.8272C78.729 7.87951 78.2964 7.38037 78.2964 6.28223V6.08258ZM78.7956 10.8411C78.7956 10.6082 78.9287 10.4751 79.1949 10.4751H80.5592C80.8254 10.4751 80.9586 10.6082 80.9586 10.8411V26.5144C80.9586 26.6808 80.8587 26.7807 80.6591 26.7807H79.0618C78.8954 26.7807 78.7956 26.6808 78.7956 26.5144V10.8411Z" fill="#52AA75"/>
<path fill-rule="evenodd" clip-rule="evenodd" d="M85.1843 18.029C85.1843 12.1391 87.1476 10.1758 91.5734 10.1758C93.7032 10.1758 95.2006 10.8413 96.099 12.1724H96.1656L96.332 10.8746C96.3653 10.6084 96.5316 10.4753 96.8311 10.4753H97.6297C97.9958 10.4753 98.0957 10.5418 98.0957 10.9079V32.3047C98.0957 32.5377 97.9958 32.6708 97.7629 32.6708H96.2654C96.0325 32.6708 95.9327 32.5377 95.9327 32.3047V25.3167H95.8661C94.9344 26.4813 93.4702 27.0803 91.4736 27.0803C86.948 27.0803 85.1843 24.9173 85.1843 19.5931V18.029ZM87.3806 19.4267C87.3806 21.6895 87.7466 23.2535 88.4787 24.0854C89.1775 24.8841 90.1092 25.2168 91.7398 25.2168C94.4019 25.2168 95.9327 23.8525 95.9327 21.2236V16.2987C95.9327 13.6033 94.4019 12.0393 91.6067 12.0393C90.1425 12.0393 89.2773 12.3388 88.6118 13.0376C87.7799 13.9361 87.3806 15.6997 87.3806 18.3285V19.4267Z" fill="#52AA75"/>
<path fill-rule="evenodd" clip-rule="evenodd" d="M102.421 11.0075C102.421 10.708 102.621 10.4751 102.887 10.4751H104.118C104.418 10.4751 104.584 10.6415 104.584 10.941V21.8225C104.584 23.1535 104.817 23.8856 105.449 24.418C106.015 24.9504 107.013 25.2167 108.444 25.2167C109.809 25.2167 110.84 24.9171 111.506 24.2849C112.071 23.7525 112.271 23.1535 112.271 21.8225V10.9077C112.271 10.6415 112.437 10.4751 112.67 10.4751H114.068C114.301 10.4751 114.434 10.6082 114.434 10.9077V22.0886C114.434 23.7857 113.935 25.0503 112.97 25.8822C112.005 26.7141 110.707 27.0801 108.444 27.0801C106.381 27.0801 104.884 26.6808 103.919 25.8822C102.92 25.0503 102.421 23.7857 102.421 22.0886V11.0075Z" fill="#52AA75"/>
<path fill-rule="evenodd" clip-rule="evenodd" d="M117.895 21.7561C117.895 19.7262 118.793 18.2287 120.49 17.5632C121.255 17.2637 122.587 17.0973 124.483 17.0973H125.482C126.314 17.0973 127.046 17.1306 127.711 17.1971V15.3004C127.711 12.8712 126.48 12.0393 123.685 12.0393C122.52 12.0393 121.389 12.2056 120.257 12.5384C119.758 12.6715 119.492 12.6715 119.392 12.2722L119.226 11.5734C119.092 11.1741 119.192 10.9411 119.592 10.8413C121.023 10.4087 122.453 10.1758 123.851 10.1758C128.11 10.1758 129.874 11.6067 129.874 15.0674V26.448C129.874 26.7143 129.808 26.7808 129.508 26.7808H128.41C128.11 26.7808 127.977 26.681 127.977 26.448L127.911 25.3167H127.844C127.112 26.4813 125.948 27.0803 124.317 27.0803H122.653C121.189 27.0803 119.858 26.6477 119.092 25.8823C118.294 25.0837 117.895 24.0522 117.895 22.7543V21.7561ZM120.091 22.488C120.091 23.5196 120.324 24.2184 120.79 24.651C121.222 25.0503 121.888 25.2499 122.82 25.2499H124.184C126.413 25.2499 127.711 24.052 127.711 21.7892V19.0272C127.179 18.9607 126.513 18.9274 125.715 18.9274H123.851C122.453 18.9274 121.488 19.1603 120.923 19.5929C120.357 20.0255 120.091 20.7576 120.091 21.7892V22.488Z" fill="#52AA75"/>
</svg>
