<svg width="130" height="35" viewBox="0 0 130 35" fill="none" xmlns="http://www.w3.org/2000/svg">
<path fill-rule="evenodd" clip-rule="evenodd" d="M33.5825 25.2598C30.7429 30.6305 25.0975 34.2984 18.6116 34.2984H2.12598V25.2598H33.5825Z" fill="#AE4B6F"/>
<path fill-rule="evenodd" clip-rule="evenodd" d="M33.5822 9.49267H0.669922V0.454102H18.6117C25.0976 0.454102 30.7426 4.12198 33.5822 9.49267Z" fill="#AE4B6F"/>
<path fill-rule="evenodd" clip-rule="evenodd" d="M35.3272 17.3764C35.3272 18.7835 35.143 20.1918 34.7781 21.5786H4.51611V13.1743H34.7781C35.143 14.5607 35.3272 15.969 35.3272 17.3764Z" fill="#AE4B6F"/>
<path fill-rule="evenodd" clip-rule="evenodd" d="M57.3056 8.44922V23.2375H54.8939L54.7246 21.7988C53.9207 23.0471 52.6301 23.4702 51.3607 23.4702C48.2931 23.4702 45.9871 21.4392 45.9871 18.0119C45.9871 14.4153 48.2508 12.5535 51.2973 12.5535C52.3974 12.5535 54.111 13.146 54.7246 14.2249V8.44922H57.3056ZM48.5681 18.012C48.5681 19.8314 49.8798 21.0796 51.53 21.0796C53.1591 21.0796 54.5553 19.8949 54.5553 18.012C54.5553 16.1925 53.1591 14.9655 51.53 14.9655C49.8798 14.9655 48.5681 16.1291 48.5681 18.012Z" fill="#AE4B6F"/>
<path fill-rule="evenodd" clip-rule="evenodd" d="M70.0628 12.8076L63.6948 27.5958H60.8598L62.8062 23.0684L58.6384 12.8076H61.6426L63.2293 17.3139L64.2237 20.2546L65.3027 17.3773L67.2067 12.8076H70.0628Z" fill="#AE4B6F"/>
<path fill-rule="evenodd" clip-rule="evenodd" d="M79.0962 23.2375V17.7792C79.0962 16.1924 78.2288 14.9866 76.5787 14.9866C74.9919 14.9866 73.9129 16.3194 73.9129 17.9061V23.2375H71.353V12.7863H73.6591L73.8283 14.2037C74.8861 13.1671 75.9439 12.6382 77.2557 12.6382C79.7098 12.6382 81.6773 14.4788 81.6773 17.758V23.2375H79.0962Z" fill="#AE4B6F"/>
<path fill-rule="evenodd" clip-rule="evenodd" d="M92.1707 12.8078H94.646V23.2378H92.213L92.0861 21.7146C91.4937 22.9416 89.8647 23.534 88.7011 23.5552C85.6123 23.5763 83.3274 21.6723 83.3274 18.0122C83.3274 14.4157 85.718 12.5327 88.7645 12.5539C90.1609 12.5539 91.4937 13.2097 92.0861 14.2464L92.1707 12.8078ZM85.9085 18.0123C85.9085 20.001 87.2836 21.1858 88.9973 21.1858C93.0593 21.1858 93.0593 14.8601 88.9973 14.8601C87.2836 14.8601 85.9085 16.0236 85.9085 18.0123Z" fill="#AE4B6F"/>
<path fill-rule="evenodd" clip-rule="evenodd" d="M103.967 23.2377V17.6524C103.967 16.2772 103.247 15.029 101.83 15.029C100.433 15.029 99.6084 16.2772 99.6084 17.6524V23.2377H97.0273V12.7864H99.418L99.6084 14.0558C100.159 12.998 101.364 12.6172 102.359 12.6172C103.607 12.6172 104.855 13.1249 105.448 14.5636C106.378 13.0826 107.584 12.6595 108.938 12.6595C111.9 12.6595 113.36 14.479 113.36 17.6101V23.2377H110.779V17.6101C110.779 16.2349 110.208 15.0713 108.811 15.0713C107.415 15.0713 106.548 16.2772 106.548 17.6524V23.2377H103.967Z" fill="#AE4B6F"/>
<path fill-rule="evenodd" clip-rule="evenodd" d="M118.595 9.86676C118.595 11.8766 115.548 11.8766 115.548 9.86676C115.548 7.85691 118.595 7.85691 118.595 9.86676ZM115.781 23.2375H118.362V12.7651H115.781V23.2375Z" fill="#AE4B6F"/>
<path fill-rule="evenodd" clip-rule="evenodd" d="M129.638 21.9046C128.432 23.0894 127.163 23.5548 125.619 23.5548C122.593 23.5548 120.076 21.7354 120.076 18.033C120.076 14.3307 122.593 12.5112 125.619 12.5112C127.1 12.5112 128.242 12.9344 129.384 14.0556L127.755 15.7693C127.142 15.2192 126.38 14.9442 125.661 14.9442C123.926 14.9442 122.657 16.2136 122.657 18.033C122.657 20.0217 124.011 21.0795 125.619 21.0795C126.444 21.0795 127.269 20.8468 127.903 20.2121L129.638 21.9046Z" fill="#AE4B6F"/>
</svg>
