<svg width="139" height="54" viewBox="0 0 139 54" fill="none" xmlns="http://www.w3.org/2000/svg">
<path fill-rule="evenodd" clip-rule="evenodd" d="M3.60184 41.9905L21.4418 52.2905C23.1655 53.2856 25.2891 53.2856 27.0127 52.2905L44.8527 41.9905C46.5764 40.9954 47.6382 39.1563 47.6382 37.166V16.5661C47.6382 14.5758 46.5764 12.7367 44.8527 11.7416L27.0127 1.44169C25.2891 0.446521 23.1655 0.446521 21.4418 1.44169L3.60184 11.7416C1.87818 12.7367 0.816406 14.5758 0.816406 16.5661V37.166C0.816406 39.1563 1.87818 40.9954 3.60184 41.9905ZM28.3419 31.4194C24.4952 34.8956 25.0122 37.5442 27.5465 40.3484H27.5396C28.259 41.1423 28.701 42.1922 28.701 43.348C28.701 45.8188 26.6981 47.8217 24.2273 47.8217C21.7565 47.8217 19.7536 45.8188 19.7536 43.348C19.7536 42.1922 20.1956 41.1423 20.915 40.3484H20.9081C23.4424 37.5442 23.9594 34.8956 20.1127 31.4194H20.1231C18.8779 30.2962 18.0906 28.6752 18.0906 26.8663C18.0906 25.0574 18.8779 23.4365 20.1231 22.3133H20.1127C23.9594 18.837 23.4424 16.1885 20.9081 13.3842H20.915C20.1956 12.5904 19.7536 11.5404 19.7536 10.3847C19.7536 7.91394 21.7565 5.911 24.2273 5.911C26.6981 5.911 28.701 7.91394 28.701 10.3847C28.701 11.5404 28.259 12.5904 27.5396 13.3842H27.5465C25.0122 16.1885 24.4952 18.837 28.3419 22.3133H28.3315C29.5767 23.4365 30.364 25.0574 30.364 26.8663C30.364 28.6752 29.5767 30.2962 28.3315 31.4194H28.3419ZM15.2729 31.3309C13.9328 29.848 13.1663 28.4076 13.3013 26.8664C13.1663 25.3251 13.9328 23.8847 15.2729 22.4018H15.2661C15.9854 21.6079 16.4275 20.5581 16.4275 19.4023C16.4275 16.9315 14.4245 14.9286 11.9538 14.9286C9.48298 14.9286 7.48008 16.9315 7.48008 19.4023C7.48008 20.5581 7.92215 21.6079 8.64146 22.4018H8.63461C9.97473 23.8847 10.7413 25.3251 10.6062 26.8664C10.7413 28.4076 9.97473 29.848 8.63461 31.3309H8.64146C7.92215 32.1248 7.48008 33.1747 7.48008 34.3304C7.48008 36.8012 9.48298 38.8042 11.9538 38.8042C14.4245 38.8042 16.4275 36.8012 16.4275 34.3304C16.4275 33.1747 15.9854 32.1248 15.2661 31.3309H15.2729ZM37.8484 26.8664C37.7133 28.4076 38.4799 29.848 39.8199 31.3309H39.8131C40.5325 32.1248 40.9745 33.1747 40.9745 34.3304C40.9745 36.8012 38.9716 38.8042 36.5008 38.8042C34.03 38.8042 32.0271 36.8012 32.0271 34.3304C32.0271 33.1747 32.4692 32.1248 33.1885 31.3309H33.1817C34.5218 29.848 35.2883 28.4076 35.1533 26.8664C35.2883 25.3251 34.5218 23.8847 33.1817 22.4018H33.1885C32.4692 21.6079 32.0271 20.5581 32.0271 19.4023C32.0271 16.9315 34.03 14.9286 36.5008 14.9286C38.9716 14.9286 40.9745 16.9315 40.9745 19.4023C40.9745 20.5581 40.5325 21.6079 39.8131 22.4018H39.8199C38.4799 23.8847 37.7133 25.3251 37.8484 26.8664Z" fill="#1A55B7"/>
<path fill-rule="evenodd" clip-rule="evenodd" d="M62.6252 17.1553V30.4587C62.6252 31.3374 62.9669 31.85 63.6748 31.85C64.163 31.85 64.6024 31.6791 65.0417 31.4595L65.2126 34.169C64.6267 34.413 63.5283 34.7304 62.3322 34.7304C60.4283 34.7304 59.2078 33.8028 59.2078 31.2886V17.1553H62.6252Z" fill="#1A55B7"/>
<path fill-rule="evenodd" clip-rule="evenodd" d="M79.541 30.5566C79.541 31.2889 79.7362 31.8503 80.4197 31.8503C80.9079 31.8503 81.2985 31.6794 81.7134 31.4597L81.8599 34.1692C81.2252 34.4621 80.1756 34.7306 79.0771 34.7306C77.637 34.7306 76.7339 34.1448 76.3677 32.8755C75.4889 33.9007 74.0732 34.7062 72.3156 34.7062C68.7518 34.7062 66.3352 31.9723 66.3352 28.14C66.3352 24.2588 68.7518 21.5005 72.3156 21.5005C73.9755 21.5005 75.2692 21.9643 76.1236 22.8186V21.7201H79.541V30.5566ZM76.1236 25.6258C75.5377 25.0155 74.4149 24.4785 73.2677 24.4785C71.144 24.4785 69.8014 25.9431 69.8014 28.14C69.8014 30.2881 71.1684 31.7526 73.2677 31.7526C74.3905 31.7526 75.4401 31.24 76.1236 30.6054V25.6258Z" fill="#1A55B7"/>
<path fill-rule="evenodd" clip-rule="evenodd" d="M91.1843 34.7304C89.4512 34.7304 88.2063 34.1934 87.3519 33.339V34.4863H83.9346V17.1553H87.3519V22.7939C88.2307 22.0128 89.5489 21.5002 91.1843 21.5002C94.7725 21.5002 97.1892 24.2341 97.1892 28.0909C97.1892 31.9477 94.7725 34.7304 91.1843 34.7304ZM90.2323 24.4782C89.0851 24.4782 88.011 25.0153 87.3519 25.6743V30.5808C87.9378 31.1666 89.0363 31.7524 90.2323 31.7524C92.3316 31.7524 93.6985 30.2878 93.6985 28.0909C93.6985 25.9184 92.3316 24.4782 90.2323 24.4782Z" fill="#1A55B7"/>
<path fill-rule="evenodd" clip-rule="evenodd" d="M105.708 21.3784C109.711 21.3784 112.592 24.2588 112.592 28.14C112.592 31.9723 109.711 34.8282 105.708 34.8282C101.754 34.8282 98.8733 31.9723 98.8733 28.14C98.8733 24.2588 101.754 21.3784 105.708 21.3784ZM105.708 31.7036C107.856 31.7036 109.296 30.1413 109.296 28.1397C109.296 26.0893 107.856 24.5026 105.708 24.5026C103.609 24.5026 102.169 26.0893 102.169 28.1397C102.169 30.1413 103.609 31.7036 105.708 31.7036Z" fill="#1A55B7"/>
<path fill-rule="evenodd" clip-rule="evenodd" d="M116.082 25.6745C116.082 24.9179 115.911 24.3808 115.203 24.3808C114.691 24.3808 114.105 24.625 113.91 24.747L113.763 22.0619C113.934 21.891 115.203 21.5005 116.546 21.5005C118.01 21.5005 118.962 22.0863 119.329 23.4289C119.939 22.2328 120.866 21.5005 122.526 21.5005C123.722 21.5005 124.65 21.9398 124.821 22.2328L124.333 25.3084C124.137 25.0399 123.161 24.6493 121.989 24.6493C120.354 24.6493 119.719 26.0651 119.499 27.5541V34.4865H116.082V25.6745Z" fill="#1A55B7"/>
<path fill-rule="evenodd" clip-rule="evenodd" d="M138.002 33.0951C136.684 34.1692 134.804 34.8282 132.632 34.8282C127.823 34.8282 125.675 31.8991 125.675 28.14C125.675 24.332 128.311 21.3784 132.412 21.3784C136.293 21.3784 138.124 23.7462 138.124 26.6997C138.124 27.4809 138.002 28.7014 137.856 29.1895H129.19C129.507 30.9715 130.655 31.9723 132.729 31.9723C134.341 31.9723 135.83 31.3133 136.708 30.6542L138.002 33.0951ZM134.853 26.1138C134.853 25.0886 134.072 24.2098 132.339 24.2098C130.508 24.2098 129.532 25.3083 129.288 26.5531H134.829C134.853 26.4311 134.853 26.2359 134.853 26.1138Z" fill="#1A55B7"/>
</svg>
