<svg width="113" height="56" viewBox="0 0 113 56" fill="none" xmlns="http://www.w3.org/2000/svg">
<path fill-rule="evenodd" clip-rule="evenodd" d="M18.8677 11.8088L16.7055 19.2237H27.8269L0.434326 55.267L7.64314 30.0366H0.846006L7.43696 0.171875H42.2445L33.4914 11.8088H18.8677Z" fill="#4B78C5"/>
<path fill-rule="evenodd" clip-rule="evenodd" d="M48.1851 17.0015C49.4518 17.0015 50.364 17.2042 51.1241 17.5589L50.6934 20.3206C50.2626 20.1179 49.6546 19.9659 48.8945 19.9659C47.6023 19.9659 46.4874 20.4219 46.2594 21.8915L46.0821 22.9303H49.7813L49.3252 25.8947H45.6007L44.1564 35.092H40.6346L42.1042 25.8947H40.0012L40.4826 22.9303H42.5603L42.7883 21.5368C43.3457 17.9643 45.9047 17.0015 48.1851 17.0015Z" fill="#4B78C5"/>
<path fill-rule="evenodd" clip-rule="evenodd" d="M63.5137 22.9302L61.5881 35.0919H58.497L58.7503 33.521C57.7115 34.7118 56.242 35.4466 54.5445 35.4466C51.4027 35.4466 49.8065 33.1663 50.2625 30.3286L51.428 22.9302H54.9245L53.8097 30.1005C53.531 31.7474 54.3418 32.4061 55.6086 32.4061C56.9768 32.4061 58.117 31.5954 58.7757 30.7846L60.0172 22.9302H63.5137Z" fill="#4B78C5"/>
<path fill-rule="evenodd" clip-rule="evenodd" d="M69.6959 41.0209C67.5677 41.0209 65.7688 40.5142 64.4766 39.7794L64.958 36.815C66.1742 37.6511 67.669 38.0565 69.3666 38.0565C71.5456 38.0565 73.4712 37.1697 73.8513 34.8134L74.0286 33.6986C73.3698 34.5094 72.0523 35.4468 69.8986 35.4468C66.0475 35.4468 64.2992 32.2291 64.8566 28.7832C65.3634 25.5908 67.897 22.5757 71.6215 22.5757C73.6738 22.5757 75.0167 23.4625 75.7768 24.856L76.1062 22.9304H79.2479L77.3731 34.8641C76.6637 39.3234 73.2685 41.0209 69.6959 41.0209ZM70.8868 32.4824C72.5337 32.4824 73.8512 31.4942 74.5353 30.4047L75.0167 27.4403C74.7127 26.4015 73.7245 25.54 72.3057 25.54C70.2027 25.54 68.6825 27.035 68.3531 29.1126C68.0744 30.8861 68.9612 32.4824 70.8868 32.4824Z" fill="#4B78C5"/>
<path fill-rule="evenodd" clip-rule="evenodd" d="M80.3376 35.0918L82.2633 22.9301H85.7851L83.8595 35.0918H80.3376ZM84.4929 20.9285C83.3274 20.9285 82.3899 20.1937 82.618 18.6988C82.8207 17.4319 83.7835 16.8999 84.8223 16.8999C86.0131 16.8999 86.9253 17.66 86.6972 19.1296C86.4945 20.3964 85.5317 20.9285 84.4929 20.9285Z" fill="#4B78C5"/>
<path fill-rule="evenodd" clip-rule="evenodd" d="M92.2456 35.4468C88.3943 35.4468 86.6461 32.2291 87.2035 28.7832C87.7102 25.5908 90.1932 22.5757 93.9684 22.5757C96.1981 22.5757 97.5156 23.7665 98.149 24.9574L98.4784 22.9304H101.569L99.6439 35.0921H96.5528L96.8315 33.2932C95.8941 34.484 94.3992 35.4468 92.2456 35.4468ZM93.2337 32.4824C94.8805 32.4824 96.1981 31.4435 96.8821 30.354L97.3636 27.5164C97.0849 26.4269 96.0968 25.54 94.6525 25.54C92.5496 25.54 91.0294 27.0856 90.7 29.0872C90.4213 30.8861 91.3081 32.4824 93.2337 32.4824Z" fill="#4B78C5"/>
<path fill-rule="evenodd" clip-rule="evenodd" d="M109.551 18.5469L108.867 22.9302H112.718L112.237 25.8946H108.385L107.6 30.7593C107.397 32.0515 107.904 32.4822 109.196 32.4822C110.058 32.4822 110.818 32.3301 111.552 32.0261L111.096 34.9145C110.336 35.2439 109.145 35.4466 107.929 35.4466C105.624 35.4466 103.571 34.2557 104.053 31.2407L104.889 25.8946H102.837L103.318 22.9302H105.345L105.928 19.4084L109.551 18.5469Z" fill="#4B78C5"/>
</svg>
