<svg width="19" height="19" viewBox="0 0 19 19" fill="none" xmlns="http://www.w3.org/2000/svg">
<path fill-rule="evenodd" clip-rule="evenodd" d="M3.61176 7.96758C5.04848 10.7911 7.3632 13.0959 10.1868 14.5426L12.3817 12.3476C12.6511 12.0782 13.0502 11.9884 13.3994 12.1081C14.5169 12.4773 15.7241 12.6768 16.9613 12.6768C17.51 12.6768 17.959 13.1258 17.959 13.6746V17.1566C17.959 17.7054 17.51 18.1543 16.9613 18.1543C7.59267 18.1543 0 10.5617 0 1.19304C0 0.644288 0.448976 0.195312 0.997723 0.195312H4.48976C5.0385 0.195312 5.48748 0.644288 5.48748 1.19304C5.48748 2.44019 5.68702 3.63746 6.05618 4.75491C6.16593 5.10411 6.08611 5.49322 5.80675 5.77259L3.61176 7.96758Z" fill="#159ED9"/>
<path fill-rule="evenodd" clip-rule="evenodd" d="M11.1082 1.05078C14.8055 1.49893 17.7371 4.43057 18.1853 8.12784L16.4959 8.4094C16.1697 5.43131 13.8048 3.06635 10.8267 2.74016L11.1082 1.05078V1.05078Z" fill="#159ED9"/>
<path fill-rule="evenodd" clip-rule="evenodd" d="M10.5452 4.43066C12.8042 4.63271 14.6033 6.43187 14.8054 8.69088L13.1106 8.97334C13.0387 7.43324 11.8028 6.19738 10.2627 6.12546L10.5452 4.43066V4.43066Z" fill="#159ED9"/>
</svg>
