<svg width="68" height="71" viewBox="0 0 68 71" fill="none" xmlns="http://www.w3.org/2000/svg">
<path d="M41.3918 29.4206H35.4788V17.7539C35.4788 14.6597 34.2328 11.6923 32.015 9.50433C29.7972 7.3164 26.7892 6.08724 23.6527 6.08724C20.5162 6.08724 17.5082 7.3164 15.2904 9.50433C13.0726 11.6923 11.8266 14.6597 11.8266 17.7539V29.4206H5.91357V17.7539C5.91357 13.1126 7.78251 8.66142 11.1092 5.37954C14.436 2.09765 18.948 0.253906 23.6527 0.253906C28.3574 0.253906 32.8694 2.09765 36.1961 5.37954C39.5229 8.66142 41.3918 13.1126 41.3918 17.7539V29.4206Z" fill="#B7B7B7"/>
<path d="M44.3478 26.5039H2.95652C1.32368 26.5039 0 27.8097 0 29.4206V61.5039C0 63.1147 1.32368 64.4206 2.95652 64.4206H44.3478C45.9806 64.4206 47.3043 63.1147 47.3043 61.5039V29.4206C47.3043 27.8097 45.9806 26.5039 44.3478 26.5039Z" fill="#F0F0F0"/>
<path d="M11.8261 58.5872C11.042 58.5872 10.29 58.28 9.7355 57.733C9.18105 57.186 8.86956 56.4441 8.86956 55.6706V26.5039H2.95652C2.1724 26.5039 1.4204 26.8112 0.865944 27.3582C0.311489 27.9052 0 28.647 0 29.4206V61.5039C0 62.2775 0.311489 63.0193 0.865944 63.5663C1.4204 64.1133 2.1724 64.4206 2.95652 64.4206H44.3478C45.1319 64.4206 45.8839 64.1133 46.4384 63.5663C46.9928 63.0193 47.3043 62.2775 47.3043 61.5039V58.5872H11.8261Z" fill="#DEDEDE"/>
<path d="M29.5653 41.0871C29.5663 40.0629 29.2938 39.0566 28.7755 38.1692C28.2571 37.2818 27.511 36.5447 26.6123 36.032C25.7135 35.5193 24.6938 35.2491 23.6556 35.2485C22.6174 35.248 21.5974 35.517 20.6981 36.0287C19.7988 36.5404 19.0518 37.2767 18.5325 38.1635C18.0131 39.0503 17.7395 40.0564 17.7393 41.0806C17.739 42.1047 18.0121 43.1109 18.5311 43.998C19.0501 44.885 19.7967 45.6216 20.6958 46.1337V55.6705H26.6088V46.1337C27.5074 45.6227 28.2538 44.8873 28.7728 44.0014C29.2918 43.1155 29.5651 42.1103 29.5653 41.0871V41.0871Z" fill="#DEDEDE"/>
<path d="M20.6953 41.0874C20.6961 39.795 21.1321 38.5396 21.9348 37.5183C22.7376 36.497 23.8615 35.7677 25.1301 35.4451C23.7465 35.091 22.2798 35.2437 21.0017 35.875C19.7236 36.5063 18.7209 37.5733 18.1795 38.8783C17.638 40.1833 17.5946 41.6377 18.0572 42.9719C18.5198 44.3061 19.4571 45.4295 20.6953 46.134V55.6707H23.6518V46.134C22.7532 45.623 22.0068 44.8876 21.4878 44.0017C20.9688 43.1158 20.6955 42.1106 20.6953 41.0874Z" fill="#B7B7B7"/>
<path d="M50.2616 70.2539C60.0586 70.2539 68.0007 62.4189 68.0007 52.7539C68.0007 43.0889 60.0586 35.2539 50.2616 35.2539C40.4645 35.2539 32.5225 43.0889 32.5225 52.7539C32.5225 62.4189 40.4645 70.2539 50.2616 70.2539Z" fill="#159ED9"/>
<path d="M50.2608 58.5874C49.8023 58.5875 49.3502 58.4819 48.9404 58.279L43.0273 55.3623L45.6719 50.1451L49.2504 51.9101L53.7159 45.3027L58.6355 48.5384L52.7225 57.2884C52.4524 57.6882 52.0863 58.016 51.6569 58.2426C51.2274 58.4692 50.7479 58.5877 50.2608 58.5874Z" fill="white"/>
</svg>
